<?xml version="1.0" standalone="no"?><!DOCTYPE svg PUBLIC "-//W3C//DTD SVG 1.1//EN" "http://www.w3.org/Graphics/SVG/1.1/DTD/svg11.dtd"><svg t="1527822804649" class="icon" style="" viewBox="0 0 1024 1024" version="1.1" xmlns="http://www.w3.org/2000/svg" p-id="4453" xmlns:xlink="http://www.w3.org/1999/xlink" width="200" height="200"><defs><style type="text/css"></style></defs><path d="M357.376 471.04h-184.32c-61.952 0-112.64-50.688-112.64-112.64V174.592c0-61.952 50.688-112.64 112.64-112.64h183.808c61.952 0 112.64 50.688 112.64 112.64V358.4c0 62.464-50.176 112.64-112.128 112.64z m-184.32-367.616c-39.424 0-71.68 32.256-71.68 71.68v183.808c0 39.424 32.256 71.68 71.68 71.68h183.808c39.424 0 71.68-32.256 71.68-71.68v-184.32c0-39.424-32.256-71.68-71.68-71.68H173.056zM357.376 920.064h-184.32c-61.952 0-112.64-50.688-112.64-112.64v-183.808c0-61.952 50.688-112.64 112.64-112.64h183.808c61.952 0 112.64 50.688 112.64 112.64v183.808c0 61.952-50.176 112.64-112.128 112.64z m-184.32-368.128c-39.424 0-71.68 32.256-71.68 71.68v183.808c0 39.424 32.256 71.68 71.68 71.68h183.808c39.424 0 71.68-32.256 71.68-71.68v-183.808c0-39.424-32.256-71.68-71.68-71.68H173.056zM811.008 472.064h-183.808c-61.952 0-112.64-50.688-112.64-112.64V175.616c0-61.952 50.688-112.64 112.64-112.64h183.808c61.952 0 112.64 50.688 112.64 112.64v183.808c0 61.952-50.176 112.64-112.64 112.64z m-183.808-368.128c-39.424 0-71.68 32.256-71.68 71.68v183.808c0 39.424 32.256 71.68 71.68 71.68h183.808c39.424 0 71.68-32.256 71.68-71.68V175.616c0-39.424-32.256-71.68-71.68-71.68h-183.808zM915.968 963.584c-13.312 0-26.112-5.12-36.352-14.848l-56.832-56.832c-31.232 18.432-67.072 28.16-103.936 28.16-112.64 0-204.288-91.648-204.288-204.288s91.648-204.288 204.288-204.288 204.288 91.648 204.288 204.288c0 36.864-9.728 72.192-28.16 103.936l56.832 56.832c19.968 19.968 19.968 52.224 0 72.192-9.728 9.728-23.04 14.848-35.84 14.848z" fill="#515151" p-id="4454"></path><path d="M827.904 838.656l80.896 80.896c4.096 4.096 10.24 4.096 14.336 0 4.096-4.096 4.096-10.24 0-14.336L842.24 824.32l10.24-14.336c19.968-27.648 30.208-60.416 30.208-94.72 0-90.112-73.216-163.328-163.328-163.328s-163.328 73.216-163.328 163.328 73.216 163.328 163.328 163.328c34.304 0 67.072-10.24 94.72-30.208l13.824-9.728z" fill="#FFE5E5" p-id="4455"></path></svg>